BioRhyme-Light.ufo
<glyph name="quotedbl" format="1">
  <advance width="269"/>
  <unicode hex="0022"/>
  <outline>
    <contour>
      <point x="55" y="360" type="line"/>
      <point x="71" y="358" type="line"/>
      <point x="111" y="556" type="line"/>
      <point x="76" y="562" type="line"/>
    </contour>
    <contour>
      <point x="168" y="360" type="line"/>
      <point x="184" y="358" type="line"/>
      <point x="224" y="556" type="line"/>
      <point x="189" y="562" type="line"/>
    </contour>
  </outline>
</glyph>
<glyph name="ampersand" format="1">
  <advance width="543"/>
  <unicode hex="0026"/>
  <outline>
    <contour>
      <point x="707" y="-189"/>
      <point x="758" y="-157"/>
      <point x="798" y="-125" type="curve"/>
      <point x="786" y="-107" type="line"/>
      <point x="745" y="-138"/>
      <point x="701" y="-166"/>
      <point x="620" y="-166" type="curve" smooth="yes"/>
      <point x="438" y="-166"/>
      <point x="220" y="29"/>
      <point x="220" y="345" type="curve" smooth="yes"/>
      <point x="220" y="452"/>
      <point x="272" y="505"/>
      <point x="331" y="505" type="curve" smooth="yes"/>
      <point x="380" y="505"/>
      <point x="414" y="471"/>
      <point x="414" y="425" type="curve" smooth="yes"/>
      <point x="414" y="353"/>
      <point x="333" y="317"/>
      <point x="227" y="291" type="curve" smooth="yes"/>
      <point x="105" y="262"/>
      <point x="18" y="226"/>
      <point x="18" y="133" type="curve" smooth="yes"/>
      <point x="18" y="41"/>
      <point x="126" y="-14"/>
      <point x="261" y="-12" type="curve" smooth="yes"/>
      <point x="407" y="-10"/>
      <point x="523" y="73"/>
      <point x="523" y="177" type="curve" smooth="yes"/>
      <point x="523" y="221"/>
      <point x="509" y="255"/>
      <point x="486" y="287" type="curve"/>
      <point x="467" y="276" type="line"/>
      <point x="487" y="246"/>
      <point x="498" y="221"/>
      <point x="498" y="178" type="curve" smooth="yes"/>
      <point x="498" y="87"/>
      <point x="398" y="11"/>
      <point x="261" y="11" type="curve" smooth="yes"/>
      <point x="131" y="11"/>
      <point x="43" y="61"/>
      <point x="43" y="133" type="curve" smooth="yes"/>
      <point x="43" y="213"/>
      <point x="124" y="240"/>
      <point x="231" y="268" type="curve" smooth="yes"/>
      <point x="350" y="300"/>
      <point x="439" y="336"/>
      <point x="439" y="429" type="curve" smooth="yes"/>
      <point x="439" y="480"/>
      <point x="397" y="528"/>
      <point x="331" y="528" type="curve" smooth="yes"/>
      <point x="249" y="528"/>
      <point x="195" y="452"/>
      <point x="195" y="345" type="curve" smooth="yes"/>
      <point x="195" y="13"/>
      <point x="429" y="-189"/>
      <point x="620" y="-189" type="curve" smooth="yes"/>
    </contour>
  </outline>
</glyph>
<glyph name="quotesingle" format="1">
  <advance width="156"/>
  <unicode hex="0027"/>
  <outline>
    <contour>
      <point x="55" y="360" type="line"/>
      <point x="71" y="358" type="line"/>
      <point x="111" y="556" type="line"/>
      <point x="76" y="562" type="line"/>
    </contour>
  </outline>
</glyph>
<glyph name="period" format="1">
  <advance width="193"/>
  <unicode hex="002E"/>
  <outline>
    <contour>
      <point x="121" y="-10"/>
      <point x="138" y="4"/>
      <point x="138" y="22" type="curve"/>
      <point x="138" y="41"/>
      <point x="121" y="55"/>
      <point x="96" y="55" type="curve"/>
      <point x="73" y="55"/>
      <point x="55" y="41"/>
      <point x="55" y="22" type="curve"/>
      <point x="55" y="4"/>
      <point x="73" y="-10"/>
      <point x="96" y="-10" type="curve"/>
    </contour>
  </outline>
</glyph>
<glyph name="two" format="1">
  <advance width="478"/>
  <unicode hex="0032"/>
  <outline>
    <contour>
      <point x="423" y="0" type="line"/>
      <point x="423" y="136" type="line"/>
      <point x="399" y="136" type="line"/>
      <point x="399" y="23" type="line"/>
      <point x="40" y="23" type="line"/>
      <point x="40" y="0" type="line"/>
    </contour>
    <contour>
      <point x="405" y="441"/>
      <point x="324" y="481"/>
      <point x="249" y="481" type="curve" smooth="yes"/>
      <point x="161" y="481"/>
      <point x="99" y="442"/>
      <point x="47" y="387" type="curve"/>
      <point x="62" y="369" type="line"/>
      <point x="113" y="423"/>
      <point x="172" y="458"/>
      <point x="249" y="458" type="curve" smooth="yes"/>
      <point x="320" y="458"/>
      <point x="379" y="421"/>
      <point x="380" y="358" type="curve" smooth="yes"/>
      <point x="381" y="293"/>
      <point x="318" y="265"/>
      <point x="226" y="217" type="curve" smooth="yes"/>
      <point x="136" y="170"/>
      <point x="40" y="133"/>
      <point x="40" y="17" type="curve"/>
      <point x="65" y="17" type="line"/>
      <point x="65" y="118"/>
      <point x="145" y="148"/>
      <point x="236" y="195" type="curve" smooth="yes"/>
      <point x="331" y="244"/>
      <point x="405" y="275"/>
      <point x="405" y="357" type="curve" smooth="yes"/>
    </contour>
  </outline>
</glyph>
<glyph name="five" format="1">
  <advance width="456"/>
  <unicode hex="0035"/>
  <outline>
    <contour>
      <point x="76" y="447" type="line"/>
      <point x="397" y="447" type="line"/>
      <point x="397" y="470" type="line"/>
      <point x="76" y="470" type="line"/>
    </contour>
    <contour>
      <point x="416" y="227"/>
      <point x="343" y="272"/>
      <point x="250" y="275" type="curve" smooth="yes"/>
      <point x="196" y="277"/>
      <point x="141" y="265"/>
      <point x="75" y="239" type="curve"/>
      <point x="75" y="215" type="line"/>
      <point x="139" y="242"/>
      <point x="189" y="253"/>
      <point x="240" y="252" type="curve" smooth="yes"/>
      <point x="330" y="250"/>
      <point x="392" y="211"/>
      <point x="391" y="137" type="curve" smooth="yes"/>
      <point x="390" y="60"/>
      <point x="315" y="13"/>
      <point x="241" y="13" type="curve" smooth="yes"/>
      <point x="164" y="13"/>
      <point x="105" y="49"/>
      <point x="60" y="81" type="curve"/>
      <point x="50" y="60" type="line"/>
      <point x="94" y="30"/>
      <point x="155" y="-10"/>
      <point x="239" y="-10" type="curve" smooth="yes"/>
      <point x="336" y="-10"/>
      <point x="416" y="50"/>
      <point x="416" y="137" type="curve" smooth="yes"/>
    </contour>
    <contour>
      <point x="75" y="215" type="line"/>
      <point x="99" y="231" type="line"/>
      <point x="99" y="470" type="line"/>
      <point x="75" y="470" type="line"/>
    </contour>
  </outline>
</glyph>
<glyph name="six" format="1">
  <advance width="469"/>
  <unicode hex="0036"/>
  <outline>
    <contour>
      <point x="341" y="-10"/>
      <point x="429" y="50"/>
      <point x="429" y="144" type="curve" smooth="yes"/>
      <point x="429" y="240"/>
      <point x="346" y="276"/>
      <point x="267" y="277" type="curve" smooth="yes"/>
      <point x="197" y="278"/>
      <point x="136" y="256"/>
      <point x="68" y="214" type="curve"/>
      <point x="68" y="190" type="line"/>
      <point x="134" y="233"/>
      <point x="190" y="254"/>
      <point x="259" y="254" type="curve" smooth="yes"/>
      <point x="336" y="254"/>
      <point x="405" y="219"/>
      <point x="403" y="143" type="curve" smooth="yes"/>
      <point x="401" y="70"/>
      <point x="337" y="14"/>
      <point x="251" y="14" type="curve" smooth="yes"/>
      <point x="164" y="14"/>
      <point x="74" y="84"/>
      <point x="74" y="214" type="curve" smooth="yes"/>
      <point x="74" y="366"/>
      <point x="166" y="457"/>
      <point x="273" y="457" type="curve" smooth="yes"/>
      <point x="334" y="457"/>
      <point x="374" y="439"/>
      <point x="411" y="418" type="curve"/>
      <point x="421" y="439" type="line"/>
      <point x="384" y="460"/>
      <point x="336" y="481"/>
      <point x="273" y="481" type="curve" smooth="yes"/>
      <point x="157" y="481"/>
      <point x="50" y="382"/>
      <point x="50" y="217" type="curve" smooth="yes"/>
      <point x="50" y="67"/>
      <point x="142" y="-10"/>
      <point x="251" y="-10" type="curve" smooth="yes"/>
    </contour>
  </outline>
</glyph>
<glyph name="seven" format="1">
  <advance width="437"/>
  <unicode hex="0037"/>
  <outline>
    <contour>
      <point x="114" y="2" type="line"/>
      <point x="136" y="-10" type="line"/>
      <point x="412" y="444" type="line"/>
      <point x="384" y="450" type="line"/>
    </contour>
    <contour>
      <point x="39" y="467" type="line"/>
      <point x="39" y="331" type="line"/>
      <point x="63" y="331" type="line"/>
      <point x="63" y="444" type="line"/>
      <point x="412" y="444" type="line"/>
      <point x="412" y="467" type="line"/>
    </contour>
  </outline>
</glyph>
<glyph name="greater" format="1">
  <advance width="379"/>
  <unicode hex="003E"/>
  <outline>
    <contour>
      <point x="354" y="238" type="line"/>
      <point x="331" y="244" type="line"/>
      <point x="50" y="72" type="line"/>
      <point x="50" y="47" type="line"/>
      <point x="354" y="232" type="line"/>
    </contour>
    <contour>
      <point x="354" y="238" type="line"/>
      <point x="50" y="423" type="line"/>
      <point x="50" y="398" type="line"/>
      <point x="331" y="227" type="line"/>
      <point x="354" y="232" type="line"/>
    </contour>
  </outline>
</glyph>
<glyph name="B" format="1">
  <advance width="572"/>
  <unicode hex="0042"/>
  <outline>
    <contour>
      <point x="328" y="0" type="line" smooth="yes"/>
      <point x="445" y="0"/>
      <point x="517" y="45"/>
      <point x="517" y="136" type="curve" smooth="yes"/>
      <point x="517" y="231"/>
      <point x="436" y="270"/>
      <point x="319" y="270" type="curve"/>
      <point x="319" y="262" type="line"/>
      <point x="430" y="262"/>
      <point x="483" y="315"/>
      <point x="483" y="391" type="curve" smooth="yes"/>
      <point x="483" y="469"/>
      <point x="423" y="520"/>
      <point x="322" y="520" type="curve" smooth="yes"/>
      <point x="30" y="520" type="line"/>
      <point x="30" y="497" type="line"/>
      <point x="319" y="497" type="line" smooth="yes"/>
      <point x="398" y="497"/>
      <point x="458" y="465"/>
      <point x="458" y="391" type="curve" smooth="yes"/>
      <point x="458" y="316"/>
      <point x="400" y="278"/>
      <point x="316" y="278" type="curve" smooth="yes"/>
      <point x="159" y="278" type="line"/>
      <point x="159" y="255" type="line"/>
      <point x="311" y="254" type="line" smooth="yes"/>
      <point x="410" y="253"/>
      <point x="492" y="222"/>
      <point x="492" y="137" type="curve" smooth="yes"/>
      <point x="492" y="55"/>
      <point x="424" y="23"/>
      <point x="322" y="23" type="curve" smooth="yes"/>
      <point x="30" y="23" type="line"/>
      <point x="30" y="0" type="line"/>
    </contour>
    <contour>
      <point x="168" y="14" type="line"/>
      <point x="168" y="508" type="line"/>
      <point x="143" y="508" type="line"/>
      <point x="143" y="14" type="line"/>
    </contour>
    <contour>
      <point x="282" y="490" type="move" name="top"/>
    </contour>
    <contour>
      <point x="282" y="0" type="move" name="bottom"/>
    </contour>
  </outline>
</glyph>
<glyph name="C" format="1">
  <advance width="561"/>
  <unicode hex="0043"/>
  <outline>
    <contour>
      <point x="415" y="-11"/>
      <point x="477" y="50"/>
      <point x="511" y="97" type="curve"/>
      <point x="494" y="111" type="line"/>
      <point x="461" y="64"/>
      <point x="399" y="12"/>
      <point x="301" y="12" type="curve" smooth="yes"/>
      <point x="174" y="12"/>
      <point x="75" y="111"/>
      <point x="75" y="260" type="curve" smooth="yes"/>
      <point x="75" y="409"/>
      <point x="179" y="507"/>
      <point x="301" y="507" type="curve" smooth="yes"/>
      <point x="403" y="507"/>
      <point x="464" y="454"/>
      <point x="503" y="365" type="curve"/>
      <point x="515" y="366" type="line"/>
      <point x="516" y="520" type="line"/>
      <point x="493" y="520" type="line"/>
      <point x="492" y="399" type="line"/>
      <point x="504" y="394" type="line"/>
      <point x="480" y="463"/>
      <point x="412" y="530"/>
      <point x="301" y="530" type="curve" smooth="yes"/>
      <point x="171" y="530"/>
      <point x="50" y="427"/>
      <point x="50" y="260" type="curve" smooth="yes"/>
      <point x="50" y="93"/>
      <point x="164" y="-11"/>
      <point x="301" y="-11" type="curve" smooth="yes"/>
    </contour>
    <contour>
      <point x="299" y="510" type="move" name="top"/>
    </contour>
    <contour>
      <point x="299" y="-10" type="move" name="bottom"/>
    </contour>
  </outline>
</glyph>
<glyph name="D" format="1">
  <advance width="613"/>
  <unicode hex="0044"/>
  <outline>
    <contour>
      <point x="278" y="0" type="line"/>
      <point x="451" y="0"/>
      <point x="563" y="99"/>
      <point x="563" y="260" type="curve"/>
      <point x="563" y="421"/>
      <point x="451" y="520"/>
      <point x="278" y="520" type="curve"/>
      <point x="30" y="520" type="line"/>
      <point x="30" y="497" type="line"/>
      <point x="278" y="497" type="line"/>
      <point x="441" y="497"/>
      <point x="538" y="404"/>
      <point x="538" y="260" type="curve"/>
      <point x="538" y="116"/>
      <point x="441" y="23"/>
      <point x="278" y="23" type="curve"/>
      <point x="30" y="23" type="line"/>
      <point x="30" y="0" type="line"/>
    </contour>
    <contour>
      <point x="168" y="13" type="line"/>
      <point x="168" y="507" type="line"/>
      <point x="143" y="507" type="line"/>
      <point x="143" y="13" type="line"/>
    </contour>
    <contour>
      <point x="283" y="245" type="move" name="center"/>
    </contour>
    <contour>
      <point x="283" y="0" type="move" name="bottom"/>
    </contour>
    <contour>
      <point x="283" y="490" type="move" name="top"/>
    </contour>
  </outline>
</glyph>
<glyph name="E" format="1">
  <advance width="577"/>
  <unicode hex="0045"/>
  <outline>
    <contour>
      <point x="517" y="0" type="line"/>
      <point x="517" y="136" type="line"/>
      <point x="493" y="136" type="line"/>
      <point x="493" y="23" type="line"/>
      <point x="30" y="23" type="line"/>
      <point x="30" y="0" type="line"/>
    </contour>
    <contour>
      <point x="168" y="13" type="line"/>
      <point x="168" y="507" type="line"/>
      <point x="143" y="507" type="line"/>
      <point x="143" y="13" type="line"/>
    </contour>
    <contour>
      <point x="348" y="261" type="line"/>
      <point x="348" y="284" type="line"/>
      <point x="165" y="284" type="line"/>
      <point x="165" y="261" type="line"/>
    </contour>
    <contour>
      <point x="361" y="178" type="line"/>
      <point x="361" y="367" type="line"/>
      <point x="336" y="367" type="line"/>
      <point x="336" y="178" type="line"/>
    </contour>
    <contour>
      <point x="517" y="384" type="line"/>
      <point x="517" y="520" type="line"/>
      <point x="30" y="520" type="line"/>
      <point x="30" y="497" type="line"/>
      <point x="492" y="497" type="line"/>
      <point x="492" y="384" type="line"/>
    </contour>
    <contour>
      <point x="505" y="10" type="move" name="ogonek"/>
    </contour>
    <contour>
      <point x="307" y="10" type="move" name="bottom"/>
    </contour>
    <contour>
      <point x="307" y="490" type="move" name="top"/>
    </contour>
  </outline>
</glyph>
<glyph name="N" format="1">
  <advance width="705"/>
  <unicode hex="004E"/>
  <outline>
    <contour>
      <point x="582" y="-5" type="line"/>
      <point x="582" y="507" type="line"/>
      <point x="557" y="507" type="line"/>
      <point x="557" y="57" type="line"/>
      <point x="168" y="520" type="line"/>
      <point x="133" y="520" type="line"/>
      <point x="577" y="-5" type="line"/>
    </contour>
    <contour>
      <point x="272" y="0" type="line"/>
      <point x="272" y="23" type="line"/>
      <point x="30" y="23" type="line"/>
      <point x="30" y="0" type="line"/>
    </contour>
    <contour>
      <point x="168" y="12" type="line"/>
      <point x="168" y="520" type="line"/>
      <point x="143" y="520" type="line"/>
      <point x="143" y="12" type="line"/>
    </contour>
    <contour>
      <point x="168" y="497" type="line"/>
      <point x="168" y="520" type="line"/>
      <point x="30" y="520" type="line"/>
      <point x="30" y="497" type="line"/>
    </contour>
    <contour>
      <point x="695" y="497" type="line"/>
      <point x="695" y="520" type="line"/>
      <point x="444" y="520" type="line"/>
      <point x="444" y="497" type="line"/>
    </contour>
    <contour>
      <point x="380" y="490" type="move" name="top"/>
    </contour>
    <contour>
      <point x="380" y="0" type="move" name="bottom"/>
    </contour>
  </outline>
</glyph>
<glyph name="S" format="1">
  <advance width="546"/>
  <unicode hex="0053"/>
  <outline>
    <contour>
      <point x="432" y="-10"/>
      <point x="501" y="44"/>
      <point x="501" y="114" type="curve" smooth="yes"/>
      <point x="501" y="193"/>
      <point x="427" y="230"/>
      <point x="284" y="269" type="curve" smooth="yes"/>
      <point x="156" y="304"/>
      <point x="86" y="344"/>
      <point x="86" y="411" type="curve" smooth="yes"/>
      <point x="86" y="468"/>
      <point x="137" y="507"/>
      <point x="226" y="507" type="curve" smooth="yes"/>
      <point x="319" y="507"/>
      <point x="402" y="462"/>
      <point x="470" y="361" type="curve"/>
      <point x="476" y="362" type="line"/>
      <point x="476" y="520" type="line"/>
      <point x="453" y="520" type="line"/>
      <point x="453" y="389" type="line"/>
      <point x="470" y="388" type="line"/>
      <point x="412" y="480"/>
      <point x="321" y="530"/>
      <point x="226" y="530" type="curve" smooth="yes"/>
      <point x="121" y="530"/>
      <point x="61" y="479"/>
      <point x="61" y="409" type="curve" smooth="yes"/>
      <point x="61" y="333"/>
      <point x="133" y="283"/>
      <point x="283" y="244" type="curve" smooth="yes"/>
      <point x="414" y="210"/>
      <point x="477" y="176"/>
      <point x="477" y="114" type="curve" smooth="yes"/>
      <point x="477" y="57"/>
      <point x="416" y="13"/>
      <point x="327" y="13" type="curve" smooth="yes"/>
      <point x="225" y="13"/>
      <point x="129" y="63"/>
      <point x="66" y="159" type="curve"/>
      <point x="60" y="158" type="line"/>
      <point x="60" y="0" type="line"/>
      <point x="83" y="0" type="line"/>
      <point x="83" y="131" type="line"/>
      <point x="66" y="132" type="line"/>
      <point x="119" y="45"/>
      <point x="223" y="-10"/>
      <point x="327" y="-10" type="curve" smooth="yes"/>
    </contour>
    <contour>
      <point x="274" y="530" type="move" name="top"/>
    </contour>
    <contour>
      <point x="294" y="-10" type="move" name="bottom"/>
    </contour>
  </outline>
</glyph>
<glyph name="X" format="1">
  <advance width="605"/>
  <unicode hex="0058"/>
  <outline>
    <contour>
      <point x="605" y="0" type="line"/>
      <point x="605" y="23" type="line"/>
      <point x="369" y="23" type="line"/>
      <point x="369" y="0" type="line"/>
    </contour>
    <contour>
      <point x="236" y="0" type="line"/>
      <point x="236" y="23" type="line"/>
      <point x="0" y="23" type="line"/>
      <point x="0" y="0" type="line"/>
    </contour>
    <contour>
      <point x="509" y="12" type="line"/>
      <point x="314" y="263" type="line"/>
      <point x="310" y="263" type="line"/>
      <point x="119" y="507" type="line"/>
      <point x="82" y="507" type="line"/>
      <point x="291" y="240" type="line"/>
      <point x="295" y="240" type="line"/>
      <point x="472" y="12" type="line"/>
    </contour>
    <contour>
      <point x="133" y="12" type="line"/>
      <point x="312" y="239" type="line"/>
      <point x="316" y="245" type="line"/>
      <point x="523" y="507" type="line"/>
      <point x="488" y="507" type="line"/>
      <point x="296" y="264" type="line"/>
      <point x="292" y="258" type="line"/>
      <point x="98" y="12" type="line"/>
    </contour>
    <contour>
      <point x="237" y="497" type="line"/>
      <point x="237" y="520" type="line" smooth="yes"/>
      <point x="0" y="520" type="line"/>
      <point x="0" y="497" type="line"/>
    </contour>
    <contour>
      <point x="605" y="497" type="line"/>
      <point x="605" y="520" type="line"/>
      <point x="368" y="520" type="line" smooth="yes"/>
      <point x="368" y="497" type="line"/>
    </contour>
    <contour>
      <point x="305" y="490" type="move" name="top"/>
    </contour>
    <contour>
      <point x="305" y="0" type="move" name="bottom"/>
    </contour>
  </outline>
</glyph>
<glyph name="Y" format="1">
  <advance width="620"/>
  <unicode hex="0059"/>
  <outline>
    <contour>
      <point x="319" y="178" type="line"/>
      <point x="530" y="510" type="line"/>
      <point x="502" y="510" type="line"/>
      <point x="311" y="207" type="line"/>
      <point x="117" y="511" type="line"/>
      <point x="88" y="511" type="line"/>
      <point x="301" y="178" type="line"/>
    </contour>
    <contour>
      <point x="441" y="0" type="line"/>
      <point x="441" y="23" type="line"/>
      <point x="180" y="23" type="line"/>
      <point x="180" y="0" type="line"/>
    </contour>
    <contour>
      <point x="323" y="0" type="line"/>
      <point x="323" y="204" type="line"/>
      <point x="298" y="204" type="line"/>
      <point x="298" y="0" type="line"/>
    </contour>
    <contour>
      <point x="232" y="497" type="line"/>
      <point x="232" y="520" type="line"/>
      <point x="5" y="520" type="line"/>
      <point x="5" y="497" type="line"/>
    </contour>
    <contour>
      <point x="615" y="497" type="line"/>
      <point x="615" y="520" type="line"/>
      <point x="389" y="520" type="line"/>
      <point x="389" y="497" type="line"/>
    </contour>
    <contour>
      <point x="309" y="490" type="move" name="top"/>
    </contour>
    <contour>
      <point x="309" y="0" type="move" name="bottom"/>
    </contour>
  </outline>
</glyph>
<glyph name="Z" format="1">
  <advance width="518"/>
  <unicode hex="005A"/>
  <outline>
    <contour>
      <point x="488" y="0" type="line"/>
      <point x="488" y="136" type="line"/>
      <point x="463" y="136" type="line"/>
      <point x="463" y="23" type="line"/>
      <point x="92" y="23" type="line"/>
      <point x="72" y="20" type="line"/>
      <point x="72" y="21" type="line"/>
      <point x="92" y="32" type="line"/>
      <point x="484" y="507" type="line"/>
      <point x="484" y="520" type="line"/>
      <point x="40" y="520" type="line"/>
      <point x="40" y="384" type="line"/>
      <point x="65" y="384" type="line"/>
      <point x="65" y="497" type="line"/>
      <point x="435" y="497" type="line"/>
      <point x="455" y="500" type="line"/>
      <point x="455" y="499" type="line"/>
      <point x="435" y="488" type="line"/>
      <point x="43" y="13" type="line"/>
      <point x="43" y="0" type="line"/>
    </contour>
    <contour>
      <point x="272" y="520" type="move" name="top"/>
    </contour>
    <contour>
      <point x="272" y="0" type="move" name="bottom"/>
    </contour>
  </outline>
</glyph>
<glyph name="backslash" format="1">
  <advance width="310"/>
  <unicode hex="005C"/>
  <outline>
    <contour>
      <point x="291" y="-79" type="line"/>
      <point x="48" y="561" type="line"/>
      <point x="23" y="561" type="line"/>
      <point x="266" y="-79" type="line"/>
    </contour>
  </outline>
</glyph>
<glyph name="asciicircum" format="1">
  <advance width="427"/>
  <unicode hex="005E"/>
  <outline>
    <contour>
      <point x="217" y="616" type="line"/>
      <point x="210" y="587" type="line"/>
      <point x="335" y="325" type="line"/>
      <point x="362" y="325" type="line"/>
      <point x="220" y="616" type="line"/>
    </contour>
    <contour>
      <point x="217" y="616" type="line"/>
      <point x="65" y="325" type="line"/>
      <point x="92" y="325" type="line"/>
      <point x="227" y="587" type="line"/>
      <point x="220" y="616" type="line"/>
    </contour>
  </outline>
</glyph>
<glyph name="d" format="1">
  <advance width="485"/>
  <unicode hex="0064"/>
  <outline>
    <contour>
      <point x="280" y="-10"/>
      <point x="335" y="31"/>
      <point x="372" y="67" type="curve"/>
      <point x="372" y="94" type="line"/>
      <point x="330" y="52"/>
      <point x="280" y="14"/>
      <point x="211" y="13" type="curve" smooth="yes"/>
      <point x="133" y="12"/>
      <point x="70" y="72"/>
      <point x="70" y="171" type="curve" smooth="yes"/>
      <point x="70" y="272"/>
      <point x="140" y="345"/>
      <point x="223" y="345" type="curve" smooth="yes"/>
      <point x="290" y="345"/>
      <point x="338" y="311"/>
      <point x="379" y="268" type="curve"/>
      <point x="379" y="291" type="line"/>
      <point x="338" y="333"/>
      <point x="290" y="367"/>
      <point x="223" y="367" type="curve" smooth="yes"/>
      <point x="129" y="367"/>
      <point x="45" y="290"/>
      <point x="45" y="170" type="curve" smooth="yes"/>
      <point x="45" y="59"/>
      <point x="120" y="-10"/>
      <point x="211" y="-10" type="curve" smooth="yes"/>
    </contour>
    <contour>
      <point x="431" y="-10"/>
      <point x="445" y="-5"/>
      <point x="455" y="2" type="curve"/>
      <point x="449" y="24" type="line"/>
      <point x="442" y="18"/>
      <point x="429" y="14"/>
      <point x="416" y="14" type="curve" smooth="yes"/>
      <point x="396" y="14"/>
      <point x="383" y="29"/>
      <point x="383" y="68" type="curve" smooth="yes"/>
      <point x="383" y="520" type="line"/>
      <point x="359" y="520" type="line"/>
      <point x="359" y="68" type="line" smooth="yes"/>
      <point x="359" y="18"/>
      <point x="378" y="-10"/>
      <point x="415" y="-10" type="curve" smooth="yes"/>
    </contour>
    <contour>
      <point x="383" y="497" type="line"/>
      <point x="383" y="520" type="line"/>
      <point x="267" y="520" type="line"/>
      <point x="267" y="497" type="line"/>
    </contour>
    <contour>
      <point x="209" y="-20" type="move" name="bottom"/>
    </contour>
    <contour>
      <point x="209" y="377" type="move" name="top"/>
    </contour>
    <contour>
      <point x="373" y="357" type="move" name="topright"/>
    </contour>
    <contour>
      <point x="209" y="179" type="move" name="center"/>
    </contour>
  </outline>
</glyph>
<glyph name="e" format="1">
  <advance width="422"/>
  <unicode hex="0065"/>
  <outline>
    <contour>
      <point x="358" y="67" type="line"/>
      <point x="324" y="36"/>
      <point x="287" y="14"/>
      <point x="228" y="13" type="curve" smooth="yes"/>
      <point x="147" y="12"/>
      <point x="70" y="72"/>
      <point x="70" y="167" type="curve" smooth="yes"/>
      <point x="70" y="282"/>
      <point x="155" y="343"/>
      <point x="232" y="343" type="curve" smooth="yes"/>
      <point x="298" y="343"/>
      <point x="346" y="309"/>
      <point x="346" y="257" type="curve" smooth="yes"/>
      <point x="346" y="204"/>
      <point x="285" y="180"/>
      <point x="229" y="180" type="curve" smooth="yes"/>
      <point x="169" y="180"/>
      <point x="115" y="195"/>
      <point x="64" y="213" type="curve"/>
      <point x="65" y="192" type="line"/>
      <point x="115" y="174"/>
      <point x="169" y="157"/>
      <point x="229" y="157" type="curve" smooth="yes"/>
      <point x="300" y="157"/>
      <point x="371" y="191"/>
      <point x="371" y="257" type="curve" smooth="yes"/>
      <point x="371" y="320"/>
      <point x="311" y="366"/>
      <point x="232" y="366" type="curve" smooth="yes"/>
      <point x="144" y="366"/>
      <point x="45" y="299"/>
      <point x="45" y="167" type="curve" smooth="yes"/>
      <point x="45" y="51"/>
      <point x="137" y="-10"/>
      <point x="228" y="-10" type="curve" smooth="yes"/>
      <point x="291" y="-10"/>
      <point x="334" y="16"/>
      <point x="372" y="49" type="curve"/>
    </contour>
    <contour>
      <point x="372" y="49" type="move" name="ogonek"/>
    </contour>
    <contour>
      <point x="226" y="-20" type="move" name="bottom"/>
    </contour>
    <contour>
      <point x="226" y="387" type="move" name="top"/>
    </contour>
  </outline>
</glyph>
<glyph name="f" format="1">
  <advance width="302"/>
  <unicode hex="0066"/>
  <outline>
    <contour>
      <point x="25" y="0" type="line"/>
      <point x="239" y="0" type="line"/>
      <point x="239" y="23" type="line"/>
      <point x="25" y="23" type="line"/>
    </contour>
    <contour>
      <point x="117" y="0" type="line"/>
      <point x="142" y="0" type="line"/>
      <point x="142" y="418" type="line"/>
      <point x="142" y="505"/>
      <point x="186" y="532"/>
      <point x="237" y="532" type="curve" smooth="yes"/>
      <point x="275" y="532"/>
      <point x="315" y="518"/>
      <point x="342" y="504" type="curve"/>
      <point x="352" y="525" type="line"/>
      <point x="323" y="538"/>
      <point x="282" y="555"/>
      <point x="237" y="555" type="curve" smooth="yes"/>
      <point x="167" y="555"/>
      <point x="117" y="514"/>
      <point x="117" y="416" type="curve"/>
    </contour>
    <contour>
      <point x="263" y="357" type="line"/>
      <point x="25" y="357" type="line"/>
      <point x="25" y="334" type="line"/>
      <point x="263" y="334" type="line"/>
    </contour>
    <contour>
      <point x="143" y="357" type="move" name="top"/>
    </contour>
    <contour>
      <point x="143" y="0" type="move" name="bottom"/>
    </contour>
  </outline>
</glyph>
<glyph name="o" format="1">
  <advance width="460"/>
  <unicode hex="006F"/>
  <outline>
    <contour>
      <point x="332" y="-10"/>
      <point x="415" y="63"/>
      <point x="415" y="178" type="curve"/>
      <point x="415" y="293"/>
      <point x="332" y="366"/>
      <point x="230" y="367" type="curve"/>
      <point x="128" y="366"/>
      <point x="45" y="293"/>
      <point x="45" y="178" type="curve"/>
      <point x="45" y="63"/>
      <point x="128" y="-10"/>
      <point x="230" y="-11" type="curve"/>
    </contour>
    <contour>
      <point x="137" y="12"/>
      <point x="71" y="79"/>
      <point x="71" y="178" type="curve"/>
      <point x="71" y="277"/>
      <point x="137" y="344"/>
      <point x="230" y="344" type="curve"/>
      <point x="323" y="344"/>
      <point x="389" y="277"/>
      <point x="389" y="178" type="curve"/>
      <point x="389" y="79"/>
      <point x="323" y="12"/>
      <point x="230" y="12" type="curve"/>
    </contour>
    <contour>
      <point x="230" y="-20" type="move" name="bottom"/>
    </contour>
    <contour>
      <point x="222" y="-9" type="move" name="ogonek"/>
    </contour>
    <contour>
      <point x="230" y="387" type="move" name="top"/>
    </contour>
    <contour>
      <point x="404" y="357" type="move" name="topright"/>
    </contour>
    <contour>
      <point x="230" y="179" type="move" name="center"/>
    </contour>
  </outline>
</glyph>
<glyph name="v" format="1">
  <advance width="489"/>
  <unicode hex="0076"/>
  <outline>
    <contour>
      <point x="0" y="357" type="line"/>
      <point x="0" y="334" type="line"/>
      <point x="173" y="334" type="line"/>
      <point x="173" y="357" type="line"/>
    </contour>
    <contour>
      <point x="315" y="357" type="line"/>
      <point x="315" y="334" type="line"/>
      <point x="489" y="334" type="line"/>
      <point x="489" y="357" type="line"/>
    </contour>
    <contour>
      <point x="245" y="-10" type="line"/>
      <point x="421" y="348" type="line"/>
      <point x="397" y="348" type="line"/>
      <point x="243" y="26" type="line"/>
      <point x="89" y="348" type="line"/>
      <point x="62" y="348" type="line"/>
      <point x="239" y="-10" type="line"/>
    </contour>
    <contour>
      <point x="245" y="347" type="move" name="top"/>
    </contour>
    <contour>
      <point x="243" y="0" type="move" name="bottom"/>
    </contour>
  </outline>
</glyph>
<glyph name="w" format="1">
  <advance width="738"/>
  <unicode hex="0077"/>
  <outline>
    <contour>
      <point x="252" y="-10" type="line"/>
      <point x="455" y="348" type="line"/>
      <point x="432" y="348" type="line"/>
      <point x="251" y="27" type="line"/>
      <point x="99" y="348" type="line"/>
      <point x="72" y="348" type="line"/>
      <point x="246" y="-10" type="line"/>
    </contour>
    <contour>
      <point x="181" y="334" type="line"/>
      <point x="181" y="357" type="line"/>
      <point x="10" y="357" type="line"/>
      <point x="10" y="334" type="line"/>
    </contour>
    <contour>
      <point x="487" y="-10" type="line"/>
      <point x="660" y="348" type="line"/>
      <point x="636" y="348" type="line"/>
      <point x="485" y="27" type="line"/>
      <point x="304" y="348" type="line"/>
      <point x="277" y="348" type="line"/>
      <point x="481" y="-10" type="line"/>
    </contour>
    <contour>
      <point x="513" y="334" type="line"/>
      <point x="513" y="357" type="line"/>
      <point x="225" y="357" type="line"/>
      <point x="225" y="334" type="line"/>
    </contour>
    <contour>
      <point x="722" y="334" type="line"/>
      <point x="722" y="357" type="line"/>
      <point x="554" y="357" type="line"/>
      <point x="554" y="334" type="line"/>
    </contour>
    <contour>
      <point x="374" y="357" type="move" name="top"/>
    </contour>
    <contour>
      <point x="382" y="0" type="move" name="bottom"/>
    </contour>
  </outline>
</glyph>
<glyph name="z" format="1">
  <advance width="462"/>
  <unicode hex="007A"/>
  <outline>
    <contour>
      <point x="378" y="262"/>
      <point x="304" y="230"/>
      <point x="225" y="193" type="curve" smooth="yes"/>
      <point x="147" y="156"/>
      <point x="65" y="115"/>
      <point x="35" y="-4" type="curve"/>
      <point x="56" y="-10" type="line"/>
      <point x="85" y="98"/>
      <point x="160" y="137"/>
      <point x="234" y="172" type="curve" smooth="yes"/>
      <point x="317" y="211"/>
      <point x="399" y="245"/>
      <point x="414" y="362" type="curve"/>
      <point x="392" y="367" type="line"/>
    </contour>
    <contour>
      <point x="380" y="-10"/>
      <point x="430" y="41"/>
      <point x="437" y="111" type="curve"/>
      <point x="414" y="115" type="line"/>
      <point x="407" y="47"/>
      <point x="359" y="13"/>
      <point x="305" y="13" type="curve" smooth="yes"/>
      <point x="248" y="13"/>
      <point x="183" y="51"/>
      <point x="115" y="105" type="curve"/>
      <point x="99" y="90" type="line"/>
      <point x="169" y="34"/>
      <point x="239" y="-10"/>
      <point x="304" y="-10" type="curve" smooth="yes"/>
    </contour>
    <contour>
      <point x="72" y="253" type="line"/>
      <point x="72" y="345" type="line"/>
      <point x="188" y="345"/>
      <point x="268" y="315"/>
      <point x="350" y="250" type="curve"/>
      <point x="358" y="269" type="line"/>
      <point x="276" y="335"/>
      <point x="203" y="367"/>
      <point x="72" y="367" type="curve" smooth="yes"/>
      <point x="47" y="367" type="line"/>
      <point x="47" y="253" type="line"/>
    </contour>
    <contour>
      <point x="239" y="367" type="move" name="top"/>
    </contour>
    <contour>
      <point x="239" y="-10" type="move" name="bottom"/>
    </contour>
  </outline>
</glyph>
<glyph name="bar" format="1">
  <advance width="235"/>
  <unicode hex="007C"/>
  <outline>
    <contour>
      <point x="105" y="-146" type="line"/>
      <point x="130" y="-146" type="line"/>
      <point x="130" y="634" type="line"/>
      <point x="105" y="634" type="line"/>
    </contour>
  </outline>
</glyph>
<glyph name="asciitilde" format="1">
  <advance width="529"/>
  <unicode hex="007E"/>
  <outline>
    <contour>
      <point x="451" y="138"/>
      <point x="479" y="219"/>
      <point x="479" y="326" type="curve"/>
      <point x="455" y="326" type="line"/>
      <point x="455" y="219"/>
      <point x="428" y="161"/>
      <point x="372" y="161" type="curve" smooth="yes"/>
      <point x="333" y="161"/>
      <point x="306" y="199"/>
      <point x="274" y="248" type="curve" smooth="yes"/>
      <point x="236" y="306"/>
      <point x="202" y="342"/>
      <point x="157" y="342" type="curve" smooth="yes"/>
      <point x="78" y="342"/>
      <point x="50" y="261"/>
      <point x="50" y="154" type="curve"/>
      <point x="74" y="154" type="line"/>
      <point x="74" y="261"/>
      <point x="101" y="319"/>
      <point x="157" y="319" type="curve" smooth="yes"/>
      <point x="196" y="319"/>
      <point x="224" y="281"/>
      <point x="255" y="232" type="curve" smooth="yes"/>
      <point x="292" y="173"/>
      <point x="327" y="138"/>
      <point x="372" y="138" type="curve" smooth="yes"/>
    </contour>
  </outline>
</glyph>
<glyph name="cent" format="1">
  <advance width="430"/>
  <unicode hex="00A2"/>
  <outline>
    <contour>
      <point x="302" y="54"/>
      <point x="344" y="82"/>
      <point x="380" y="113" type="curve"/>
      <point x="367" y="131" type="line"/>
      <point x="331" y="101"/>
      <point x="292" y="76"/>
      <point x="228" y="77" type="curve" smooth="yes"/>
      <point x="146" y="78"/>
      <point x="70" y="143"/>
      <point x="70" y="233" type="curve" smooth="yes"/>
      <point x="70" y="327"/>
      <point x="142" y="393"/>
      <point x="226" y="393" type="curve" smooth="yes"/>
      <point x="298" y="393"/>
      <point x="346" y="358"/>
      <point x="373" y="286" type="curve"/>
      <point x="385" y="287" type="line"/>
      <point x="385" y="409" type="line"/>
      <point x="362" y="409" type="line"/>
      <point x="362" y="320" type="line"/>
      <point x="374" y="313" type="line"/>
      <point x="352" y="374"/>
      <point x="300" y="415"/>
      <point x="226" y="416" type="curve" smooth="yes"/>
      <point x="130" y="417"/>
      <point x="45" y="339"/>
      <point x="45" y="233" type="curve" smooth="yes"/>
      <point x="45" y="123"/>
      <point x="136" y="54"/>
      <point x="228" y="54" type="curve" smooth="yes"/>
    </contour>
    <contour>
      <point x="240" y="-10" type="line"/>
      <point x="240" y="63" type="line"/>
      <point x="240" y="70" type="line"/>
      <point x="240" y="402" type="line"/>
      <point x="240" y="410" type="line"/>
      <point x="240" y="480" type="line"/>
      <point x="217" y="480" type="line"/>
      <point x="217" y="410" type="line"/>
      <point x="217" y="402" type="line"/>
      <point x="217" y="70" type="line"/>
      <point x="217" y="63" type="line"/>
      <point x="217" y="-10" type="line"/>
    </contour>
  </outline>
</glyph>
<glyph name="sterling" format="1">
  <advance width="495"/>
  <unicode hex="00A3"/>
  <outline>
    <contour>
      <point x="52" y="-10" type="line" smooth="yes"/>
      <point x="151" y="-10"/>
      <point x="205" y="43"/>
      <point x="205" y="108" type="curve" smooth="yes"/>
      <point x="205" y="194"/>
      <point x="123" y="255"/>
      <point x="123" y="345" type="curve" smooth="yes"/>
      <point x="123" y="417"/>
      <point x="178" y="457"/>
      <point x="243" y="457" type="curve" smooth="yes"/>
      <point x="310" y="457"/>
      <point x="371" y="424"/>
      <point x="432" y="328" type="curve"/>
      <point x="438" y="329" type="line"/>
      <point x="438" y="470" type="line"/>
      <point x="415" y="470" type="line"/>
      <point x="415" y="363" type="line"/>
      <point x="429" y="361" type="line"/>
      <point x="389" y="431"/>
      <point x="324" y="480"/>
      <point x="245" y="480" type="curve" smooth="yes"/>
      <point x="157" y="480"/>
      <point x="98" y="427"/>
      <point x="98" y="345" type="curve" smooth="yes"/>
      <point x="98" y="250"/>
      <point x="181" y="183"/>
      <point x="181" y="109" type="curve" smooth="yes"/>
      <point x="181" y="52"/>
      <point x="130" y="12"/>
      <point x="52" y="12" type="curve" smooth="yes"/>
      <point x="45" y="12" type="line"/>
      <point x="45" y="-10" type="line"/>
    </contour>
    <contour>
      <point x="366" y="166" type="line"/>
      <point x="366" y="188" type="line"/>
      <point x="45" y="188" type="line"/>
      <point x="45" y="166" type="line"/>
    </contour>
    <contour>
      <point x="417" y="-10"/>
      <point x="463" y="40"/>
      <point x="470" y="111" type="curve"/>
      <point x="447" y="115" type="line"/>
      <point x="442" y="45"/>
      <point x="396" y="13"/>
      <point x="349" y="13" type="curve" smooth="yes"/>
      <point x="290" y="13"/>
      <point x="241" y="49"/>
      <point x="196" y="85" type="curve"/>
      <point x="186" y="66" type="line"/>
      <point x="232" y="28"/>
      <point x="280" y="-10"/>
      <point x="348" y="-10" type="curve" smooth="yes"/>
    </contour>
    <contour>
      <point x="368" y="272" type="line"/>
      <point x="368" y="294" type="line"/>
      <point x="47" y="294" type="line"/>
      <point x="47" y="272" type="line"/>
    </contour>
  </outline>
</glyph>
<glyph name="brokenbar" format="1">
  <advance width="235"/>
  <unicode hex="00A6"/>
  <outline>
    <contour>
      <point x="105" y="304" type="line"/>
      <point x="130" y="304" type="line"/>
      <point x="130" y="634" type="line"/>
      <point x="105" y="634" type="line"/>
    </contour>
    <contour>
      <point x="105" y="-146" type="line"/>
      <point x="130" y="-146" type="line"/>
      <point x="130" y="184" type="line"/>
      <point x="105" y="184" type="line"/>
    </contour>
  </outline>
</glyph>
<glyph name="section" format="1">
  <advance width="520"/>
  <unicode hex="00A7"/>
  <outline>
    <contour>
      <point x="415" y="-4"/>
      <point x="495" y="49"/>
      <point x="495" y="124" type="curve" smooth="yes"/>
      <point x="495" y="203"/>
      <point x="415" y="242"/>
      <point x="283" y="279" type="curve" smooth="yes"/>
      <point x="166" y="312"/>
      <point x="100" y="344"/>
      <point x="100" y="411" type="curve" smooth="yes"/>
      <point x="100" y="468"/>
      <point x="151" y="507"/>
      <point x="225" y="507" type="curve" smooth="yes"/>
      <point x="308" y="507"/>
      <point x="386" y="462"/>
      <point x="454" y="361" type="curve"/>
      <point x="460" y="362" type="line"/>
      <point x="460" y="520" type="line"/>
      <point x="437" y="520" type="line"/>
      <point x="437" y="389" type="line"/>
      <point x="454" y="388" type="line"/>
      <point x="396" y="480"/>
      <point x="310" y="530"/>
      <point x="225" y="530" type="curve" smooth="yes"/>
      <point x="135" y="530"/>
      <point x="75" y="479"/>
      <point x="75" y="409" type="curve" smooth="yes"/>
      <point x="75" y="333"/>
      <point x="143" y="290"/>
      <point x="282" y="254" type="curve" smooth="yes"/>
      <point x="402" y="223"/>
      <point x="471" y="186"/>
      <point x="471" y="124" type="curve" smooth="yes"/>
      <point x="471" y="62"/>
      <point x="399" y="11"/>
      <point x="286" y="13" type="curve"/>
      <point x="286" y="-2" type="line"/>
    </contour>
    <contour>
      <point x="395" y="-247"/>
      <point x="455" y="-196"/>
      <point x="455" y="-126" type="curve" smooth="yes"/>
      <point x="455" y="-50"/>
      <point x="387" y="-7"/>
      <point x="248" y="29" type="curve" smooth="yes"/>
      <point x="128" y="60"/>
      <point x="59" y="97"/>
      <point x="59" y="159" type="curve" smooth="yes"/>
      <point x="59" y="221"/>
      <point x="131" y="272"/>
      <point x="244" y="270" type="curve"/>
      <point x="244" y="285" type="line"/>
      <point x="115" y="287"/>
      <point x="35" y="234"/>
      <point x="35" y="159" type="curve" smooth="yes"/>
      <point x="35" y="80"/>
      <point x="115" y="41"/>
      <point x="247" y="4" type="curve" smooth="yes"/>
      <point x="364" y="-29"/>
      <point x="430" y="-61"/>
      <point x="430" y="-128" type="curve" smooth="yes"/>
      <point x="430" y="-185"/>
      <point x="379" y="-224"/>
      <point x="305" y="-224" type="curve" smooth="yes"/>
      <point x="222" y="-224"/>
      <point x="144" y="-179"/>
      <point x="76" y="-78" type="curve"/>
      <point x="70" y="-79" type="line"/>
      <point x="70" y="-237" type="line"/>
      <point x="93" y="-237" type="line"/>
      <point x="93" y="-106" type="line"/>
      <point x="76" y="-105" type="line"/>
      <point x="134" y="-197"/>
      <point x="220" y="-247"/>
      <point x="305" y="-247" type="curve" smooth="yes"/>
    </contour>
  </outline>
</glyph>
<glyph name="plusminus" format="1">
  <advance width="447"/>
  <unicode hex="00B1"/>
  <outline>
    <contour>
      <point x="211" y="183" type="line"/>
      <point x="236" y="183" type="line"/>
      <point x="236" y="447" type="line"/>
      <point x="211" y="447" type="line"/>
    </contour>
    <contour>
      <point x="85" y="327" type="line"/>
      <point x="85" y="304" type="line"/>
      <point x="362" y="304" type="line"/>
      <point x="362" y="327" type="line"/>
    </contour>
    <contour>
      <point x="85" y="61" type="line"/>
      <point x="85" y="38" type="line"/>
      <point x="362" y="38" type="line"/>
      <point x="362" y="61" type="line"/>
    </contour>
  </outline>
</glyph>
<glyph name="guillemotright" format="1">
  <advance width="444"/>
  <unicode hex="00BB"/>
  <outline>
    <contour>
      <point x="254" y="177"/>
      <point x="357" y="254"/>
      <point x="452" y="254" type="curve" smooth="yes"/>
      <point x="464" y="254" type="line"/>
      <point x="464" y="277" type="line"/>
      <point x="452" y="277" type="line" smooth="yes"/>
      <point x="357" y="277"/>
      <point x="254" y="354"/>
      <point x="235" y="463" type="curve"/>
      <point x="215" y="459" type="line"/>
      <point x="231" y="345"/>
      <point x="340" y="262"/>
      <point x="433" y="262" type="curve"/>
      <point x="433" y="269" type="line"/>
      <point x="340" y="269"/>
      <point x="231" y="186"/>
      <point x="215" y="72" type="curve"/>
      <point x="235" y="68" type="line"/>
    </contour>
    <contour>
      <point x="59" y="177"/>
      <point x="162" y="254"/>
      <point x="257" y="254" type="curve" smooth="yes"/>
      <point x="269" y="254" type="line"/>
      <point x="269" y="277" type="line"/>
      <point x="257" y="277" type="line" smooth="yes"/>
      <point x="162" y="277"/>
      <point x="59" y="354"/>
      <point x="40" y="463" type="curve"/>
      <point x="20" y="459" type="line"/>
      <point x="36" y="345"/>
      <point x="145" y="262"/>
      <point x="238" y="262" type="curve"/>
      <point x="238" y="269" type="line"/>
      <point x="145" y="269"/>
      <point x="36" y="186"/>
      <point x="20" y="72" type="curve"/>
      <point x="40" y="68" type="line"/>
    </contour>
  </outline>
</glyph>
<glyph name="multiply" format="1">
  <advance width="419"/>
  <unicode hex="00D7"/>
  <outline>
    <contour>
      <point x="334" y="128" type="line"/>
      <point x="102" y="359" type="line"/>
      <point x="86" y="343" type="line"/>
      <point x="317" y="112" type="line"/>
    </contour>
    <contour>
      <point x="334" y="341" type="line"/>
      <point x="316" y="359" type="line"/>
      <point x="85" y="129" type="line"/>
      <point x="103" y="111" type="line"/>
    </contour>
  </outline>
</glyph>
<glyph name="germandbls" format="1">
  <advance width="549"/>
  <unicode hex="00DF"/>
  <outline>
    <contour>
      <point x="473" y="-10"/>
      <point x="534" y="17"/>
      <point x="534" y="77" type="curve" smooth="yes"/>
      <point x="534" y="142"/>
      <point x="454" y="161"/>
      <point x="392" y="177" type="curve" smooth="yes"/>
      <point x="323" y="195"/>
      <point x="266" y="210"/>
      <point x="266" y="253" type="curve" smooth="yes"/>
      <point x="266" y="296"/>
      <point x="307" y="309"/>
      <point x="357" y="330" type="curve" smooth="yes"/>
      <point x="414" y="354"/>
      <point x="453" y="385"/>
      <point x="453" y="437" type="curve" smooth="yes"/>
      <point x="453" y="500"/>
      <point x="385" y="555"/>
      <point x="282" y="555" type="curve" smooth="yes"/>
      <point x="180" y="555"/>
      <point x="117" y="499"/>
      <point x="117" y="401" type="curve" smooth="yes"/>
      <point x="117" y="0" type="line"/>
      <point x="142" y="0" type="line"/>
      <point x="142" y="403" type="line" smooth="yes"/>
      <point x="142" y="490"/>
      <point x="201" y="532"/>
      <point x="282" y="532" type="curve" smooth="yes"/>
      <point x="379" y="532"/>
      <point x="427" y="485"/>
      <point x="427" y="439" type="curve" smooth="yes"/>
      <point x="427" y="404"/>
      <point x="406" y="375"/>
      <point x="350" y="353" type="curve" smooth="yes"/>
      <point x="291" y="330"/>
      <point x="240" y="308"/>
      <point x="240" y="253" type="curve" smooth="yes"/>
      <point x="240" y="189"/>
      <point x="317" y="170"/>
      <point x="391" y="152" type="curve" smooth="yes"/>
      <point x="456" y="136"/>
      <point x="508" y="121"/>
      <point x="508" y="76" type="curve" smooth="yes"/>
      <point x="508" y="34"/>
      <point x="471" y="14"/>
      <point x="419" y="14" type="curve" smooth="yes"/>
      <point x="354" y="14"/>
      <point x="285" y="57"/>
      <point x="247" y="114" type="curve"/>
      <point x="235" y="112" type="line"/>
      <point x="235" y="0" type="line"/>
      <point x="258" y="0" type="line"/>
      <point x="258" y="75" type="line"/>
      <point x="243" y="92" type="line"/>
      <point x="262" y="43"/>
      <point x="351" y="-10"/>
      <point x="419" y="-10" type="curve" smooth="yes"/>
    </contour>
    <contour>
      <point x="139" y="0" type="line"/>
      <point x="139" y="23" type="line"/>
      <point x="25" y="23" type="line"/>
      <point x="25" y="0" type="line"/>
    </contour>
    <contour>
      <point x="133" y="334" type="line"/>
      <point x="133" y="357" type="line"/>
      <point x="25" y="357" type="line"/>
      <point x="25" y="334" type="line"/>
    </contour>
  </outline>
</glyph>
<glyph name="thorn" format="1">
  <advance width="480"/>
  <unicode hex="00FE"/>
  <outline>
    <contour>
      <point x="200" y="367"/>
      <point x="145" y="326"/>
      <point x="108" y="290" type="curve"/>
      <point x="108" y="263" type="line"/>
      <point x="150" y="305"/>
      <point x="200" y="343"/>
      <point x="269" y="344" type="curve" smooth="yes"/>
      <point x="347" y="345"/>
      <point x="410" y="285"/>
      <point x="410" y="186" type="curve" smooth="yes"/>
      <point x="410" y="85"/>
      <point x="340" y="12"/>
      <point x="257" y="12" type="curve" smooth="yes"/>
      <point x="190" y="12"/>
      <point x="142" y="46"/>
      <point x="101" y="89" type="curve"/>
      <point x="101" y="66" type="line"/>
      <point x="142" y="24"/>
      <point x="190" y="-10"/>
      <point x="257" y="-10" type="curve" smooth="yes"/>
      <point x="351" y="-10"/>
      <point x="435" y="67"/>
      <point x="435" y="187" type="curve" smooth="yes"/>
      <point x="435" y="298"/>
      <point x="360" y="367"/>
      <point x="269" y="367" type="curve" smooth="yes"/>
    </contour>
    <contour>
      <point x="218" y="-165" type="line"/>
      <point x="218" y="-142" type="line"/>
      <point x="5" y="-142" type="line"/>
      <point x="5" y="-165" type="line"/>
    </contour>
    <contour>
      <point x="5" y="520" type="line"/>
      <point x="5" y="497" type="line"/>
      <point x="97" y="497" type="line"/>
      <point x="97" y="-164" type="line"/>
      <point x="121" y="-164" type="line"/>
      <point x="121" y="520" type="line"/>
    </contour>
  </outline>
</glyph>
<glyph name="Hbar" format="1">
  <advance width="720"/>
  <unicode hex="0126"/>
  <outline>
    <contour>
      <point x="668" y="365" type="line"/>
      <point x="668" y="387" type="line"/>
      <point x="58" y="387" type="line"/>
      <point x="58" y="365" type="line"/>
    </contour>
    <contour>
      <point x="280" y="0" type="line"/>
      <point x="280" y="23" type="line"/>
      <point x="30" y="23" type="line"/>
      <point x="30" y="0" type="line"/>
    </contour>
    <contour>
      <point x="167" y="13" type="line"/>
      <point x="167" y="509" type="line"/>
      <point x="143" y="509" type="line"/>
      <point x="143" y="13" type="line"/>
    </contour>
    <contour>
      <point x="690" y="0" type="line"/>
      <point x="690" y="23" type="line"/>
      <point x="439" y="23" type="line"/>
      <point x="439" y="0" type="line"/>
    </contour>
    <contour>
      <point x="558" y="238" type="line"/>
      <point x="558" y="261" type="line"/>
      <point x="162" y="261" type="line"/>
      <point x="162" y="238" type="line"/>
    </contour>
    <contour>
      <point x="280" y="497" type="line"/>
      <point x="280" y="520" type="line"/>
      <point x="30" y="520" type="line"/>
      <point x="30" y="497" type="line"/>
    </contour>
    <contour>
      <point x="577" y="13" type="line"/>
      <point x="577" y="509" type="line"/>
      <point x="552" y="509" type="line"/>
      <point x="552" y="13" type="line"/>
    </contour>
    <contour>
      <point x="690" y="497" type="line"/>
      <point x="690" y="520" type="line"/>
      <point x="439" y="520" type="line"/>
      <point x="439" y="497" type="line"/>
    </contour>
    <contour>
      <point x="371" y="255" type="move" name="center"/>
    </contour>
    <contour>
      <point x="371" y="0" type="move" name="bottom"/>
    </contour>
    <contour>
      <point x="371" y="520" type="move" name="top"/>
    </contour>
  </outline>
</glyph>
<glyph name="hbar" format="1">
  <advance width="550"/>
  <unicode hex="0127"/>
  <outline>
    <contour>
      <point x="38" y="456" type="line"/>
      <point x="38" y="434" type="line"/>
      <point x="448" y="434" type="line"/>
      <point x="448" y="456" type="line"/>
    </contour>
    <component base="h"/>
  </outline>
</glyph>
<glyph name="dotlessi" format="1">
  <advance width="254"/>
  <unicode hex="0131"/>
  <outline>
    <contour>
      <point x="142" y="0" type="line"/>
      <point x="142" y="357" type="line"/>
      <point x="117" y="357" type="line"/>
      <point x="117" y="0" type="line"/>
    </contour>
    <contour>
      <point x="234" y="0" type="line"/>
      <point x="234" y="23" type="line"/>
      <point x="25" y="23" type="line"/>
      <point x="25" y="0" type="line"/>
    </contour>
    <contour>
      <point x="142" y="334" type="line"/>
      <point x="142" y="357" type="line"/>
      <point x="25" y="357" type="line"/>
      <point x="25" y="334" type="line"/>
    </contour>
    <contour>
      <point x="231" y="0" type="move" name="ogonek"/>
    </contour>
    <contour>
      <point x="120" y="0" type="move" name="bottom"/>
    </contour>
    <contour>
      <point x="130" y="357" type="move" name="top"/>
    </contour>
  </outline>
</glyph>
<glyph name="uni02BA" format="1">
  <advance width="365"/>
  <unicode hex="02BA"/>
  <outline>
    <contour>
      <point x="90" y="358" type="line"/>
      <point x="104" y="355" type="line"/>
      <point x="160" y="549" type="line"/>
      <point x="130" y="556" type="line"/>
    </contour>
    <contour>
      <point x="220" y="358" type="line"/>
      <point x="234" y="355" type="line"/>
      <point x="290" y="549" type="line"/>
      <point x="260" y="556" type="line"/>
    </contour>
  </outline>
</glyph>
<glyph name="uni02BB" format="1">
  <advance width="199"/>
  <unicode hex="02BB"/>
  <outline>
    <contour>
      <point x="55" y="-236"/>
      <point x="74" y="-256"/>
      <point x="104" y="-256" type="curve" smooth="yes"/>
      <point x="126" y="-256"/>
      <point x="144" y="-241"/>
      <point x="144" y="-222" type="curve" smooth="yes"/>
      <point x="144" y="-203"/>
      <point x="126" y="-191"/>
      <point x="107" y="-191" type="curve" smooth="yes"/>
      <point x="94" y="-191"/>
      <point x="87" y="-193"/>
      <point x="76" y="-196" type="curve"/>
      <point x="80" y="-152"/>
      <point x="107" y="-116"/>
      <point x="144" y="-78" type="curve"/>
      <point x="133" y="-66" type="line"/>
      <point x="85" y="-107"/>
      <point x="55" y="-161"/>
      <point x="55" y="-204" type="curve" smooth="yes"/>
    </contour>
    <contour>
      <point x="107" y="0" type="move" name="_bottom"/>
    </contour>
  </outline>
</glyph>
<glyph name="uni0307" format="1">
  <advance width="199"/>
  <unicode hex="0307"/>
  <outline>
    <contour>
      <point x="123" y="422"/>
      <point x="139" y="435"/>
      <point x="139" y="452" type="curve"/>
      <point x="139" y="470"/>
      <point x="123" y="483"/>
      <point x="99" y="483" type="curve"/>
      <point x="77" y="483"/>
      <point x="60" y="470"/>
      <point x="60" y="452" type="curve"/>
      <point x="60" y="435"/>
      <point x="77" y="422"/>
      <point x="99" y="422" type="curve"/>
    </contour>
    <contour>
      <point x="99" y="310" type="move" name="_top"/>
    </contour>
  </outline>
</glyph>
<glyph name="uni0308" format="1">
  <advance width="451"/>
  <unicode hex="0308"/>
  <outline>
    <contour>
      <point x="320" y="570"/>
      <point x="336" y="583"/>
      <point x="336" y="600" type="curve"/>
      <point x="336" y="618"/>
      <point x="320" y="631"/>
      <point x="296" y="631" type="curve"/>
      <point x="274" y="631"/>
      <point x="257" y="618"/>
      <point x="257" y="600" type="curve"/>
      <point x="257" y="583"/>
      <point x="274" y="570"/>
      <point x="296" y="570" type="curve"/>
    </contour>
    <contour>
      <point x="168" y="570"/>
      <point x="184" y="583"/>
      <point x="184" y="600" type="curve"/>
      <point x="184" y="618"/>
      <point x="168" y="631"/>
      <point x="144" y="631" type="curve"/>
      <point x="122" y="631"/>
      <point x="105" y="618"/>
      <point x="105" y="600" type="curve"/>
      <point x="105" y="583"/>
      <point x="122" y="570"/>
      <point x="144" y="570" type="curve"/>
    </contour>
    <contour>
      <point x="226" y="477" type="move" name="_top"/>
    </contour>
  </outline>
</glyph>
<glyph name="uni030A" format="1">
  <advance width="325"/>
  <unicode hex="030A"/>
  <outline>
    <contour>
      <point x="225" y="473"/>
      <point x="270" y="519"/>
      <point x="270" y="579" type="curve"/>
      <point x="270" y="642"/>
      <point x="225" y="684"/>
      <point x="163" y="684" type="curve"/>
      <point x="105" y="684"/>
      <point x="55" y="642"/>
      <point x="55" y="579" type="curve"/>
      <point x="55" y="519"/>
      <point x="105" y="473"/>
      <point x="163" y="473" type="curve"/>
    </contour>
    <contour>
      <point x="116" y="495"/>
      <point x="78" y="533"/>
      <point x="78" y="579" type="curve"/>
      <point x="78" y="627"/>
      <point x="116" y="662"/>
      <point x="163" y="662" type="curve"/>
      <point x="213" y="662"/>
      <point x="247" y="627"/>
      <point x="247" y="579" type="curve"/>
      <point x="247" y="533"/>
      <point x="213" y="495"/>
      <point x="163" y="495" type="curve"/>
    </contour>
    <contour>
      <point x="163" y="391" type="move" name="_top"/>
    </contour>
  </outline>
</glyph>
<glyph name="uni030C" format="1">
  <advance width="334"/>
  <unicode hex="030C"/>
  <outline>
    <contour>
      <point x="167" y="497" type="line"/>
      <point x="46" y="616" type="line"/>
      <point x="35" y="605" type="line"/>
      <point x="157" y="469" type="line"/>
      <point x="177" y="469" type="line"/>
      <point x="299" y="605" type="line"/>
      <point x="288" y="616" type="line"/>
    </contour>
    <contour>
      <point x="167" y="391" type="move" name="_top"/>
    </contour>
  </outline>
</glyph>
<glyph name="endash" format="1">
  <advance width="434"/>
  <unicode hex="2013"/>
  <outline>
    <contour>
      <point x="25" y="190" type="line"/>
      <point x="25" y="167" type="line"/>
      <point x="409" y="167" type="line"/>
      <point x="409" y="190" type="line"/>
    </contour>
  </outline>
</glyph>
<glyph name="emdash" format="1">
  <advance width="636"/>
  <unicode hex="2014"/>
  <outline>
    <contour>
      <point x="25" y="190" type="line"/>
      <point x="25" y="167" type="line"/>
      <point x="611" y="167" type="line"/>
      <point x="611" y="190" type="line"/>
    </contour>
  </outline>
</glyph>
<glyph name="quotereversed" format="1">
  <advance width="209"/>
  <unicode hex="201B"/>
  <outline>
    <contour>
      <point x="154" y="379" type="line"/>
      <point x="107" y="427"/>
      <point x="80" y="468"/>
      <point x="76" y="512" type="curve"/>
      <point x="87" y="509"/>
      <point x="94" y="507"/>
      <point x="107" y="507" type="curve" smooth="yes"/>
      <point x="126" y="507"/>
      <point x="144" y="519"/>
      <point x="144" y="538" type="curve" smooth="yes"/>
      <point x="144" y="557"/>
      <point x="126" y="572"/>
      <point x="104" y="572" type="curve" smooth="yes"/>
      <point x="74" y="572"/>
      <point x="55" y="552"/>
      <point x="55" y="520" type="curve" smooth="yes"/>
      <point x="55" y="477"/>
      <point x="85" y="418"/>
      <point x="143" y="367" type="curve"/>
    </contour>
  </outline>
</glyph>
<glyph name="quotedblleft" format="1">
  <advance width="345"/>
  <unicode hex="201C"/>
  <outline>
    <contour>
      <point x="262" y="367"/>
      <point x="280" y="382"/>
      <point x="280" y="401" type="curve" smooth="yes"/>
      <point x="280" y="420"/>
      <point x="262" y="432"/>
      <point x="243" y="432" type="curve" smooth="yes"/>
      <point x="230" y="432"/>
      <point x="223" y="430"/>
      <point x="212" y="427" type="curve"/>
      <point x="216" y="471"/>
      <point x="243" y="512"/>
      <point x="290" y="560" type="curve"/>
      <point x="279" y="572" type="line"/>
      <point x="221" y="521"/>
      <point x="191" y="462"/>
      <point x="191" y="419" type="curve" smooth="yes"/>
      <point x="191" y="387"/>
      <point x="210" y="367"/>
      <point x="240" y="367" type="curve" smooth="yes"/>
    </contour>
    <contour>
      <point x="126" y="367"/>
      <point x="144" y="382"/>
      <point x="144" y="401" type="curve" smooth="yes"/>
      <point x="144" y="420"/>
      <point x="126" y="432"/>
      <point x="107" y="432" type="curve" smooth="yes"/>
      <point x="94" y="432"/>
      <point x="87" y="430"/>
      <point x="76" y="427" type="curve"/>
      <point x="80" y="471"/>
      <point x="107" y="512"/>
      <point x="154" y="560" type="curve"/>
      <point x="143" y="572" type="line"/>
      <point x="85" y="521"/>
      <point x="55" y="462"/>
      <point x="55" y="419" type="curve" smooth="yes"/>
      <point x="55" y="387"/>
      <point x="74" y="367"/>
      <point x="104" y="367" type="curve" smooth="yes"/>
    </contour>
  </outline>
</glyph>
<glyph name="guilsinglleft" format="1">
  <advance width="249"/>
  <unicode hex="2039"/>
  <outline>
    <contour>
      <point x="104" y="261"/>
      <point x="213" y="344"/>
      <point x="229" y="458" type="curve"/>
      <point x="209" y="462" type="line"/>
      <point x="190" y="353"/>
      <point x="87" y="276"/>
      <point x="-8" y="276" type="curve" smooth="yes"/>
      <point x="-20" y="276" type="line"/>
      <point x="-20" y="253" type="line"/>
      <point x="-8" y="253" type="line" smooth="yes"/>
      <point x="87" y="253"/>
      <point x="190" y="176"/>
      <point x="209" y="67" type="curve"/>
      <point x="229" y="71" type="line"/>
      <point x="213" y="185"/>
      <point x="104" y="268"/>
      <point x="11" y="268" type="curve"/>
      <point x="11" y="261" type="line"/>
    </contour>
  </outline>
</glyph>
<glyph name="trademark" format="1">
  <advance width="599"/>
  <unicode hex="2122"/>
  <outline>
    <contour>
      <point x="414" y="296" type="line"/>
      <point x="418" y="337" type="line"/>
      <point x="328" y="520" type="line"/>
      <point x="300" y="520" type="line"/>
      <point x="412" y="296" type="line"/>
    </contour>
    <contour>
      <point x="194" y="300" type="line"/>
      <point x="194" y="323" type="line"/>
      <point x="77" y="323" type="line"/>
      <point x="77" y="300" type="line"/>
    </contour>
    <contour>
      <point x="148" y="305" type="line"/>
      <point x="148" y="501" type="line"/>
      <point x="123" y="501" type="line"/>
      <point x="123" y="305" type="line"/>
    </contour>
    <contour>
      <point x="54" y="451" type="line"/>
      <point x="54" y="497" type="line"/>
      <point x="218" y="497" type="line"/>
      <point x="218" y="451" type="line"/>
      <point x="241" y="451" type="line"/>
      <point x="241" y="520" type="line"/>
      <point x="30" y="520" type="line"/>
      <point x="30" y="451" type="line"/>
    </contour>
    <contour>
      <point x="360" y="300" type="line"/>
      <point x="360" y="323" type="line"/>
      <point x="262" y="323" type="line"/>
      <point x="262" y="300" type="line"/>
    </contour>
    <contour>
      <point x="325" y="305" type="line"/>
      <point x="325" y="520" type="line"/>
      <point x="300" y="520" type="line"/>
      <point x="300" y="305" type="line"/>
    </contour>
    <contour>
      <point x="323" y="497" type="line"/>
      <point x="323" y="520" type="line"/>
      <point x="262" y="520" type="line"/>
      <point x="262" y="497" type="line"/>
    </contour>
    <contour>
      <point x="564" y="300" type="line"/>
      <point x="564" y="323" type="line"/>
      <point x="466" y="323" type="line"/>
      <point x="466" y="300" type="line"/>
    </contour>
    <contour>
      <point x="414" y="296" type="line"/>
      <point x="527" y="520" type="line"/>
      <point x="500" y="520" type="line"/>
      <point x="410" y="336" type="line"/>
      <point x="412" y="296" type="line"/>
    </contour>
    <contour>
      <point x="526" y="305" type="line"/>
      <point x="526" y="520" type="line"/>
      <point x="501" y="520" type="line"/>
      <point x="501" y="305" type="line"/>
    </contour>
    <contour>
      <point x="564" y="497" type="line"/>
      <point x="564" y="520" type="line"/>
      <point x="504" y="520" type="line"/>
      <point x="504" y="497" type="line"/>
    </contour>
  </outline>
</glyph>
<glyph name="minus" format="1">
  <advance width="447"/>
  <unicode hex="2212"/>
  <outline>
    <contour>
      <point x="70" y="247" type="line"/>
      <point x="70" y="224" type="line"/>
      <point x="377" y="224" type="line"/>
      <point x="377" y="247" type="line"/>
    </contour>
  </outline>
</glyph>
<glyph name="R.alt" format="1">
  <advance width="597"/>
  <outline>
    <contour>
      <point x="867" y="-188"/>
      <point x="924" y="-163"/>
      <point x="962" y="-136" type="curve"/>
      <point x="950" y="-117" type="line"/>
      <point x="915" y="-142"/>
      <point x="859" y="-165"/>
      <point x="797" y="-165" type="curve" smooth="yes"/>
      <point x="691" y="-165"/>
      <point x="612" y="-118"/>
      <point x="502" y="70" type="curve" smooth="yes"/>
      <point x="408" y="230"/>
      <point x="365" y="253"/>
      <point x="277" y="253" type="curve" smooth="yes"/>
      <point x="203" y="253" type="line"/>
      <point x="203" y="241" type="line"/>
      <point x="277" y="241" type="line" smooth="yes"/>
      <point x="341" y="241"/>
      <point x="385" y="224"/>
      <point x="480" y="60" type="curve" smooth="yes"/>
      <point x="594" y="-138"/>
      <point x="678" y="-188"/>
      <point x="797" y="-188" type="curve" smooth="yes"/>
    </contour>
    <contour>
      <point x="281" y="0" type="line"/>
      <point x="281" y="23" type="line"/>
      <point x="30" y="22" type="line"/>
      <point x="30" y="-1" type="line"/>
    </contour>
    <contour>
      <point x="168" y="13" type="line"/>
      <point x="168" y="507" type="line"/>
      <point x="143" y="507" type="line"/>
      <point x="143" y="13" type="line"/>
    </contour>
    <contour>
      <point x="352" y="241" type="line" smooth="yes"/>
      <point x="466" y="241"/>
      <point x="525" y="309"/>
      <point x="525" y="378" type="curve" smooth="yes"/>
      <point x="525" y="457"/>
      <point x="465" y="520"/>
      <point x="352" y="520" type="curve" smooth="yes"/>
      <point x="30" y="520" type="line"/>
      <point x="30" y="497" type="line"/>
      <point x="352" y="497" type="line" smooth="yes"/>
      <point x="451" y="497"/>
      <point x="500" y="441"/>
      <point x="500" y="378" type="curve" smooth="yes"/>
      <point x="500" y="317"/>
      <point x="448" y="262"/>
      <point x="352" y="262" type="curve" smooth="yes"/>
      <point x="163" y="262" type="line"/>
      <point x="163" y="241" type="line"/>
    </contour>
    <contour>
      <point x="285" y="520" type="move" name="top"/>
    </contour>
    <contour>
      <point x="325" y="0" type="move" name="bottom"/>
    </contour>
  </outline>
</glyph>
<glyph name="one.numr" format="1">
  <advance width="232"/>
  <outline>
    <contour>
      <point x="86" y="402"/>
      <point x="125" y="428"/>
      <point x="129" y="469" type="curve"/>
      <point x="116" y="480" type="line"/>
      <point x="112" y="447"/>
      <point x="74" y="422"/>
      <point x="40" y="422" type="curve"/>
      <point x="45" y="399" type="line"/>
    </contour>
    <contour>
      <point x="192" y="198" type="line"/>
      <point x="192" y="219" type="line"/>
      <point x="41" y="219" type="line"/>
      <point x="41" y="198" type="line"/>
    </contour>
    <contour>
      <point x="139" y="198" type="line"/>
      <point x="139" y="480" type="line"/>
      <point x="116" y="480" type="line"/>
      <point x="116" y="198" type="line"/>
    </contour>
  </outline>
</glyph>
<glyph name="two.dnom" format="1">
  <advance width="303"/>
  <outline>
    <contour>
      <point x="162" y="91" type="line" smooth="yes"/>
      <point x="215" y="127"/>
      <point x="250" y="156"/>
      <point x="250" y="201" type="curve" smooth="yes"/>
      <point x="250" y="257"/>
      <point x="198" y="282"/>
      <point x="153" y="282" type="curve" smooth="yes"/>
      <point x="102" y="282"/>
      <point x="62" y="256"/>
      <point x="27" y="221" type="curve"/>
      <point x="40" y="205" type="line"/>
      <point x="75" y="240"/>
      <point x="108" y="261"/>
      <point x="153" y="261" type="curve" smooth="yes"/>
      <point x="193" y="261"/>
      <point x="227" y="243"/>
      <point x="227" y="202" type="curve" smooth="yes"/>
      <point x="227" y="162"/>
      <point x="198" y="140"/>
      <point x="144" y="104" type="curve" smooth="yes"/>
      <point x="20" y="21" type="line"/>
      <point x="36" y="6" type="line"/>
    </contour>
    <contour>
      <point x="263" y="0" type="line"/>
      <point x="263" y="87" type="line"/>
      <point x="242" y="87" type="line"/>
      <point x="242" y="21" type="line"/>
      <point x="20" y="21" type="line"/>
      <point x="20" y="0" type="line"/>
    </contour>
  </outline>
</glyph>
<glyph name="u.alt" format="1">
  <advance width="515"/>
  <outline>
    <contour>
      <point x="284" y="-10"/>
      <point x="344" y="40"/>
      <point x="395" y="103" type="curve"/>
      <point x="395" y="126" type="line"/>
      <point x="343" y="61"/>
      <point x="278" y="13"/>
      <point x="217" y="13" type="curve" smooth="yes"/>
      <point x="155" y="13"/>
      <point x="128" y="53"/>
      <point x="128" y="123" type="curve" smooth="yes"/>
      <point x="128" y="357" type="line"/>
      <point x="103" y="357" type="line"/>
      <point x="103" y="118" type="line" smooth="yes"/>
      <point x="103" y="33"/>
      <point x="145" y="-10"/>
      <point x="212" y="-10" type="curve" smooth="yes"/>
    </contour>
    <contour>
      <point x="115" y="334" type="line"/>
      <point x="115" y="357" type="line"/>
      <point x="20" y="357" type="line"/>
      <point x="20" y="334" type="line"/>
    </contour>
    <contour>
      <point x="485" y="-5"/>
      <point x="510" y="26"/>
      <point x="510" y="68" type="curve" smooth="yes"/>
      <point x="510" y="87" type="line"/>
      <point x="487" y="87" type="line"/>
      <point x="487" y="68" type="line" smooth="yes"/>
      <point x="487" y="39"/>
      <point x="473" y="18"/>
      <point x="447" y="18" type="curve" smooth="yes"/>
      <point x="422" y="18"/>
      <point x="406" y="37"/>
      <point x="406" y="70" type="curve" smooth="yes"/>
      <point x="406" y="357" type="line"/>
      <point x="382" y="357" type="line"/>
      <point x="382" y="70" type="line" smooth="yes"/>
      <point x="382" y="26"/>
      <point x="408" y="-5"/>
      <point x="447" y="-5" type="curve" smooth="yes"/>
    </contour>
    <contour>
      <point x="398" y="334" type="line"/>
      <point x="398" y="357" type="line"/>
      <point x="306" y="357" type="line"/>
      <point x="306" y="334" type="line"/>
    </contour>
    <contour>
      <point x="478" y="-4" type="move" name="ogonek"/>
    </contour>
    <contour>
      <point x="229" y="357" type="move" name="top"/>
    </contour>
    <contour>
      <point x="492" y="357" type="move" name="topright"/>
    </contour>
    <contour>
      <point x="229" y="-20" type="move" name="bottom"/>
    </contour>
  </outline>
</glyph>
